<svg width="31" height="30" viewBox="0 0 31 30" fill="none" xmlns="http://www.w3.org/2000/svg">
<g opacity="0.7">
<path d="M15.5 30C6.9403 30 0 23.2612 0 15C0 6.71642 6.96343 0 15.5 0C24.0597 0 31 6.73881 31 15C31 23.2836 24.0597 30 15.5 30ZM15.5 1.61194C7.86567 1.61194 1.66567 7.61194 1.66567 15C1.66567 22.3881 7.86567 28.3881 15.5 28.3881C23.1343 28.3881 29.3343 22.3881 29.3343 15C29.3343 7.61194 23.1343 1.61194 15.5 1.61194Z" fill="white"/>
<path fill-rule="evenodd" clip-rule="evenodd" d="M13.0709 23.7537C13.0709 23.8881 13.1866 23.9776 13.3022 23.9776H16.6336C16.7724 23.9776 16.8649 23.8657 16.8649 23.7537V14.9328H19.294C19.4097 14.9328 19.5254 14.8433 19.5254 14.7313L19.7567 12.0672C19.7798 11.9328 19.6642 11.8209 19.5254 11.8209H16.8881V9.9403C16.8881 9.49254 17.2582 9.13433 17.7209 9.13433H19.5948C19.7336 9.13433 19.8261 9.02239 19.8261 8.91045V6.24627C19.8261 6.11194 19.7104 6.02239 19.5948 6.02239H16.4254C14.5746 6.02239 13.0709 7.47762 13.0709 9.26866V11.8433H11.4052C11.2664 11.8433 11.1739 11.9552 11.1739 12.0672V14.7313C11.1739 14.8657 11.2895 14.9552 11.4052 14.9552H13.0709V23.7537Z" fill="white"/>
</g>
</svg>
