<svg width="30" height="30" viewBox="0 0 30 30" fill="none" xmlns="http://www.w3.org/2000/svg">
<path opacity="0.7" d="M15 30C6.73424 30 0 23.2658 0 15C0 6.73423 6.73424 0 15 0C23.2658 0 30 6.73423 30 15C30 23.2658 23.2658 30 15 30ZM15 1.44144C7.52253 1.44144 1.41892 7.52252 1.41892 15.0225C1.41892 22.5225 7.5 28.6036 15 28.6036C22.5 28.6036 28.5811 22.5225 28.5811 15.0225C28.5811 7.52252 22.4775 1.44144 15 1.44144ZM20.045 8.91892C19.4369 8.91892 18.9414 9.41441 18.9414 10.0225C18.9414 10.6306 19.4369 11.1261 20.045 11.1261C20.6532 11.1261 21.1487 10.6306 21.1487 10.0225C21.1487 9.41441 20.6532 8.91892 20.045 8.91892ZM15.1126 10.3378C12.545 10.3378 10.4505 12.4324 10.4505 15C10.4505 17.5676 12.545 19.6622 15.1126 19.6622C17.6802 19.6622 19.7748 17.5676 19.7748 15C19.7748 12.4324 17.6802 10.3378 15.1126 10.3378ZM15.1126 17.9955C13.4685 17.9955 12.1171 16.6667 12.1171 15C12.1171 13.3559 13.4459 12.0045 15.1126 12.0045C16.7568 12.0045 18.1081 13.3333 18.1081 15C18.1081 16.6441 16.7568 17.9955 15.1126 17.9955ZM24.527 11.1261C24.527 7.99549 21.982 5.45045 18.8513 5.45045H11.3514C8.22072 5.45045 5.67567 7.99549 5.67567 11.1261V18.6261C5.67567 21.7568 8.22072 24.3018 11.3514 24.3018H18.8513C21.982 24.3018 24.527 21.7568 24.527 18.6261V11.1261ZM22.7478 18.6261C22.7478 20.7883 20.991 22.5225 18.8513 22.5225H11.3514C9.18919 22.5225 7.45496 20.7658 7.45496 18.6261V11.1261C7.45496 8.96396 9.21171 7.22973 11.3514 7.22973H18.8513C21.0135 7.22973 22.7478 8.98649 22.7478 11.1261V18.6261Z" fill="white"/>
</svg>
