<svg width="31" height="30" viewBox="0 0 31 30" fill="none" xmlns="http://www.w3.org/2000/svg">
<g opacity="0.7">
<path d="M15.5 30C6.9403 30 0 23.2612 0 15C0 6.73881 6.96343 0 15.5 0C24.0597 0 31 6.73881 31 15C31 23.2612 24.0366 30 15.5 30ZM15.5 1.61194C7.86567 1.61194 1.66567 7.61194 1.66567 15C1.66567 22.3881 7.86567 28.3881 15.5 28.3881C23.1343 28.3881 29.3343 22.3881 29.3343 15C29.3343 7.61194 23.1112 1.61194 15.5 1.61194Z" fill="white"/>
<path d="M24.7769 12.7388C24.7769 10.6119 22.9956 8.88806 20.7978 8.88806H10.4799C8.28211 8.88806 6.50076 10.6119 6.50076 12.7388V17.4179C6.50076 19.5448 8.28211 21.2687 10.4799 21.2687H20.7978C22.9956 21.2687 24.7769 19.5448 24.7769 17.4179V12.7388ZM18.253 15.3134L14.1351 17.5075C13.95 17.597 13.7881 17.4851 13.7881 17.2836V12.806C13.7881 12.6045 13.95 12.4701 14.1351 12.5821L18.2762 14.8881C18.4844 14.9552 18.4381 15.2015 18.253 15.3134Z" fill="white"/>
</g>
</svg>
